<svg preserveAspectRatio="none" width="100%" height="100%" overflow="visible" style="display: block;" viewBox="0 0 100 99" fill="none" xmlns="http://www.w3.org/2000/svg">
<path id="Vector" fill-rule="evenodd" clip-rule="evenodd" d="M44.4437 0.0222059C43.4804 0.394009 42.3855 1.16508 41.1823 2.54455C39.3363 4.6613 37.5284 7.9019 35.9454 12.1607C34.2585 16.6963 32.8983 22.1994 31.9944 28.3426H59.7768C58.8728 22.1994 57.5106 16.6963 55.8258 12.1607C54.2428 7.9019 52.4349 4.6613 50.5888 2.54455C49.3857 1.16508 48.2887 0.394009 47.3274 0.0222059C46.3657 -0.00740198 45.4055 -0.00740198 44.4437 0.0222059ZM25.5628 28.3426H3.42055C8.81661 15.2619 20.1307 5.22534 34.0463 1.53477C32.5058 3.94938 31.1478 6.8055 29.9743 9.9616C28.0328 15.188 26.5198 21.4474 25.565 28.3405M1.33894 56.6842H24.8584C24.5507 53.0248 24.3978 49.3543 24.4 45.6822C24.4 41.9219 24.5592 38.2377 24.8605 34.6802H1.33894C0.447363 38.2801 -0.00223303 41.9744 8.33899e-06 45.6822C8.33899e-06 49.4762 0.46471 53.1605 1.33894 56.6842ZM25.5607 63.0217C26.1315 67.1622 26.9039 71.0704 27.8482 74.668V87.7023C16.7756 82.9733 8.00586 74.112 3.42055 63.0196L25.5607 63.0217ZM61.7969 9.9616C60.6234 6.8055 59.2633 3.94938 57.7228 1.53266C71.6426 5.22322 82.9567 15.2598 88.3506 28.3405H66.2062C65.2513 21.4474 63.7384 15.188 61.7969 9.9616ZM90.4344 34.6781H66.9107C67.1547 37.5701 67.3054 40.5424 67.3521 43.5718C69.5137 43.5973 71.6575 43.9653 73.703 44.6618C76.8095 45.7181 81.7493 47.501 88.5225 50.2389C89.5382 50.6501 90.5023 51.0444 91.4147 51.4219C92.1199 45.8286 91.7876 40.1519 90.4344 34.6781ZM60.5216 34.6802C60.8105 37.947 60.9697 41.224 60.999 44.5034L60.5067 44.6639C57.3981 45.7202 52.4583 47.5032 45.6872 50.241C41.4646 51.95 38.1501 53.3738 35.6059 54.5167C34.3743 55.0681 33.2321 55.7994 32.2172 56.6863H31.2475C30.9241 53.0271 30.7634 49.3555 30.7658 45.6822C30.7658 41.8944 30.9356 38.2102 31.2496 34.6802H60.5216ZM62.5671 49.6051C65.5097 48.6012 68.7042 48.6012 71.6468 49.6051C74.6387 50.6233 79.4661 52.3619 86.129 55.0554C89.4418 56.3883 92.7292 57.7828 95.9896 59.2382C98.5062 60.3684 100 62.6858 100 65.2018C100 67.7178 98.5062 70.0353 95.9896 71.1655C92.7292 72.6201 89.4417 74.0139 86.129 75.3461C79.4661 78.0417 74.6387 79.7803 71.6468 80.7964C68.7036 81.8008 65.5082 81.8008 62.565 80.7964C59.5752 79.7803 54.7478 78.0417 48.085 75.3461C45.5704 74.3321 43.0692 73.2856 40.5818 72.2069V90.6788C40.5818 91.5192 40.2465 92.3252 39.6496 92.9195C39.0527 93.5137 38.2431 93.8476 37.399 93.8476C36.5548 93.8476 35.7452 93.5137 35.1483 92.9195C34.5514 92.3252 34.2161 91.5192 34.2161 90.6788V65.4279L34.2118 65.1997C34.2118 62.6837 35.7078 60.3663 38.2223 59.2361C41.4833 57.7807 44.7715 56.3862 48.085 55.0533C54.7478 52.3598 59.5752 50.6233 62.5671 49.6051ZM60.5088 86.7918C57.4321 85.7461 52.558 83.9885 45.8867 81.295C45.8973 85.4017 46.1116 88.0973 46.3429 89.8296C46.4949 91.0339 46.939 92.1833 47.637 93.1785C48.335 94.1737 49.2658 94.9848 50.3491 95.5418C53.2434 97.0311 58.6797 99 67.1059 99C75.5321 99 80.9663 97.0311 83.8628 95.5418C84.9459 94.9844 85.8765 94.1728 86.5741 93.1772C87.2717 92.1817 87.7154 91.032 87.8668 89.8275C88.1002 88.0973 88.3124 85.4017 88.3252 81.2971C81.6538 83.9906 76.7819 85.7461 73.7051 86.7918C69.4188 88.2494 64.793 88.2494 60.5067 86.7918" fill="white"/>
</svg>
